<?xml version="1.0" encoding="UTF-8"?>
<!DOCTYPE svg PUBLIC "-//W3C//DTD SVG 1.1//EN" "http://www.w3.org/Graphics/SVG/1.1/DTD/svg11.dtd">
<svg xmlns="http://www.w3.org/2000/svg" version="1.1" width="3896px" height="1172px" style="shape-rendering:geometricPrecision; text-rendering:geometricPrecision; image-rendering:optimizeQuality; fill-rule:evenodd; clip-rule:evenodd" xmlns:xlink="http://www.w3.org/1999/xlink">
<g><path style="opacity:0.302" fill="#f5bf16" d="M 22.5,263.5 C 169.178,263.028 315.844,263.528 462.5,265C 497.038,266.737 529.705,275.404 560.5,291C 580.771,302.267 597.604,317.433 611,336.5C 653.235,396.822 661.235,461.489 635,530.5C 617.71,565.123 592.21,591.957 558.5,611C 550.112,615.861 541.446,620.194 532.5,624C 569.294,691.754 605.96,759.587 642.5,827.5C 671.826,828.5 701.159,828.833 730.5,828.5C 730.5,866.833 730.5,905.167 730.5,943.5C 661.163,943.833 591.83,943.5 522.5,942.5C 471.667,844.167 420.833,745.833 370,647.5C 344.241,646.505 318.408,646.172 292.5,646.5C 292.5,707.167 292.5,767.833 292.5,828.5C 320.833,828.5 349.167,828.5 377.5,828.5C 377.5,866.833 377.5,905.167 377.5,943.5C 258.833,943.5 140.167,943.5 21.5,943.5C 21.5,905.167 21.5,866.833 21.5,828.5C 52.8333,828.5 84.1667,828.5 115.5,828.5C 115.5,678.833 115.5,529.167 115.5,379.5C 84.2599,379.829 53.0932,379.496 22,378.5C 21.1734,340.095 21.3401,301.762 22.5,263.5 Z M 292.5,379.5 C 322.502,379.333 352.502,379.5 382.5,380C 406.361,380.866 427.361,388.866 445.5,404C 458.951,419.012 465.284,436.679 464.5,457C 465.372,489.608 451.039,512.608 421.5,526C 407.996,531.368 393.996,534.701 379.5,536C 350.521,537.383 321.521,537.883 292.5,537.5C 292.5,484.833 292.5,432.167 292.5,379.5 Z"/></g>
<g><path style="opacity:0.302" fill="#f5bf16" d="M 1337.5,263.5 C 1412.83,263.5 1488.17,263.5 1563.5,263.5C 1563.5,453.833 1563.5,644.167 1563.5,834.5C 1586.17,834.5 1608.83,834.5 1631.5,834.5C 1631.5,870.833 1631.5,907.167 1631.5,943.5C 1533.5,943.5 1435.5,943.5 1337.5,943.5C 1337.5,907.167 1337.5,870.833 1337.5,834.5C 1362.5,834.5 1387.5,834.5 1412.5,834.5C 1412.5,680.833 1412.5,527.167 1412.5,373.5C 1387.5,373.5 1362.5,373.5 1337.5,373.5C 1337.5,336.833 1337.5,300.167 1337.5,263.5 Z"/></g>
<g><path style="opacity:0.301" fill="#f5bf16" d="M 1010.5,458.5 C 1097.73,454.878 1167.9,487.212 1221,555.5C 1239.69,583.562 1252.36,614.228 1259,647.5C 1265.47,677.488 1268.63,707.821 1268.5,738.5C 1151.17,738.5 1033.83,738.5 916.5,738.5C 917.501,796.394 945.501,833.894 1000.5,851C 1031.6,859.729 1061.6,856.729 1090.5,842C 1098.84,837.501 1106.84,832.501 1114.5,827C 1125.27,818.729 1135.61,809.895 1145.5,800.5C 1184.64,812.77 1223.64,825.437 1262.5,838.5C 1226.86,894.597 1176.52,930.43 1111.5,946C 1047.9,959.28 984.904,956.946 922.5,939C 848.812,913.979 799.978,864.479 776,790.5C 764.494,744.071 763.494,697.405 773,650.5C 792.806,571.383 839.64,514.549 913.5,480C 944.719,467.259 977.052,460.092 1010.5,458.5 Z M 1004.5,559.5 C 1057.16,556.731 1092.33,580.064 1110,629.5C 1112.63,637.671 1114.46,646.004 1115.5,654.5C 1050.17,654.5 984.833,654.5 919.5,654.5C 921.867,630.556 930.033,608.89 944,589.5C 960.296,571.602 980.463,561.602 1004.5,559.5 Z"/></g>
<g><path style="opacity:0.301" fill="#f5bf16" d="M 1937.5,458.5 C 2025.28,454.988 2095.78,487.655 2149,556.5C 2170.35,590.193 2184.01,626.86 2190,666.5C 2193.85,690.347 2195.68,714.347 2195.5,738.5C 2078.17,738.5 1960.83,738.5 1843.5,738.5C 1844.06,767.435 1852.89,793.435 1870,816.5C 1908.63,853.699 1953.46,864.199 2004.5,848C 2030.1,836.365 2052.77,820.532 2072.5,800.5C 2111.45,813.04 2150.45,825.373 2189.5,837.5C 2168.28,873.547 2139.28,901.714 2102.5,922C 2057.13,944.982 2008.96,955.815 1958,954.5C 1909.77,955.453 1863.6,946.287 1819.5,927C 1749.07,891.194 1707.91,834.027 1696,755.5C 1687.44,694.851 1697.44,637.517 1726,583.5C 1774.26,504.765 1844.76,463.099 1937.5,458.5 Z M 1932.5,559.5 C 1987.58,557.452 2023.08,582.785 2039,635.5C 2040.81,641.723 2041.98,648.056 2042.5,654.5C 1977.17,654.5 1911.83,654.5 1846.5,654.5C 1849.17,629.629 1858.01,607.295 1873,587.5C 1889.29,570.572 1909.13,561.239 1932.5,559.5 Z"/></g>
<g><path style="opacity:0.302" fill="#f4bf16" d="M 2491.5,458.5 C 2524.45,458.135 2557.12,460.968 2589.5,467C 2618.73,473.067 2645.4,484.733 2669.5,502C 2704.45,533.459 2721.62,572.959 2721,620.5C 2722.41,691.823 2722.91,763.157 2722.5,834.5C 2747.83,834.5 2773.17,834.5 2798.5,834.5C 2798.5,870.833 2798.5,907.167 2798.5,943.5C 2722.5,943.5 2646.5,943.5 2570.5,943.5C 2570.67,931.495 2570.5,919.495 2570,907.5C 2505.13,953.588 2435.3,962.755 2360.5,935C 2287.71,902.266 2258.55,846.433 2273,767.5C 2280.64,737.717 2295.8,712.55 2318.5,692C 2346.92,667.295 2379.92,651.962 2417.5,646C 2459.29,639.527 2500.29,642.86 2540.5,656C 2550.5,659.111 2560.33,662.611 2570,666.5C 2571.06,650.082 2570.4,633.748 2568,617.5C 2556.77,581.438 2532.27,561.271 2494.5,557C 2463.62,553.72 2435.62,561.053 2410.5,579C 2404.95,584.224 2399.11,589.057 2393,593.5C 2352.84,586.101 2312.67,578.767 2272.5,571.5C 2280.23,553.72 2290.73,537.72 2304,523.5C 2335.15,494.006 2371.98,475.172 2414.5,467C 2440.1,462.175 2465.76,459.342 2491.5,458.5 Z M 2482.5,734.5 C 2504.51,736.669 2525.17,743.169 2544.5,754C 2552.83,758.833 2561.17,763.667 2569.5,768.5C 2570.67,781.487 2570.83,794.487 2570,807.5C 2552,824.421 2531.84,838.254 2509.5,849C 2489.08,857.72 2468.75,858.053 2448.5,850C 2419.99,831.507 2410.16,805.674 2419,772.5C 2428.73,753.356 2444.23,741.523 2465.5,737C 2471.3,736.109 2476.97,735.275 2482.5,734.5 Z"/></g>
<g><path style="opacity:0.301" fill="#f5bf16" d="M 3603.5,458.5 C 3691.28,454.988 3761.78,487.655 3815,556.5C 3838.85,594.044 3853.18,635.044 3858,679.5C 3860.49,699.09 3861.66,718.756 3861.5,738.5C 3744.17,738.5 3626.83,738.5 3509.5,738.5C 3512.02,802.178 3544.35,840.678 3606.5,854C 3634.27,858.871 3660.61,854.538 3685.5,841C 3704.73,829.609 3722.4,816.109 3738.5,800.5C 3777.45,813.04 3816.45,825.373 3855.5,837.5C 3834.28,873.547 3805.28,901.714 3768.5,922C 3723.13,944.982 3674.96,955.815 3624,954.5C 3575.77,955.453 3529.6,946.287 3485.5,927C 3415.07,891.194 3373.91,834.027 3362,755.5C 3353.44,694.85 3363.44,637.516 3392,583.5C 3440.26,504.765 3510.76,463.099 3603.5,458.5 Z M 3598.5,559.5 C 3653.58,557.452 3689.08,582.785 3705,635.5C 3706.88,641.714 3708.04,648.048 3708.5,654.5C 3643.17,654.5 3577.83,654.5 3512.5,654.5C 3515.17,629.626 3524.01,607.293 3539,587.5C 3555.29,570.572 3575.13,561.239 3598.5,559.5 Z"/></g>
<g><path style="opacity:0.301" fill="#f5bf16" d="M 3005.5,463.5 C 3043.57,461.278 3080.9,465.445 3117.5,476C 3127,478.72 3136.16,482.22 3145,486.5C 3145.19,481.25 3145.69,476.083 3146.5,471C 3182.5,470.5 3218.5,470.333 3254.5,470.5C 3254.5,516.5 3254.5,562.5 3254.5,608.5C 3218.17,608.5 3181.83,608.5 3145.5,608.5C 3142.26,595.76 3135.26,585.594 3124.5,578C 3111.29,569.708 3096.96,564.375 3081.5,562C 3058.15,558.733 3034.82,558.733 3011.5,562C 3000.69,563.819 2991.53,568.653 2984,576.5C 2978.35,585.153 2977.02,594.487 2980,604.5C 2982.13,607.63 2984.63,610.463 2987.5,613C 2993.85,616.45 3000.51,619.116 3007.5,621C 3048.75,629.717 3090.08,638.05 3131.5,646C 3158.28,651.528 3184.28,659.528 3209.5,670C 3264.56,699.941 3290.06,746.441 3286,809.5C 3279.86,870.625 3248.7,913.458 3192.5,938C 3150.4,953.215 3107.07,958.215 3062.5,953C 3037.79,951.41 3014.79,944.41 2993.5,932C 2989.33,928.5 2985.17,925 2981,921.5C 2980.5,928.826 2980.33,936.159 2980.5,943.5C 2943.5,943.5 2906.5,943.5 2869.5,943.5C 2869.5,889.167 2869.5,834.833 2869.5,780.5C 2906.5,780.333 2943.5,780.5 2980.5,781C 2984,810.177 2999.33,830.51 3026.5,842C 3060.35,855.676 3094.68,857.009 3129.5,846C 3143.53,841.075 3153.7,831.908 3160,818.5C 3163.98,804.102 3160.14,792.268 3148.5,783C 3135.19,775.118 3120.86,769.784 3105.5,767C 3080.56,762.01 3055.56,757.343 3030.5,753C 2990.34,745.615 2952.34,732.282 2916.5,713C 2858.27,675.327 2839.44,623.161 2860,556.5C 2876.98,519.851 2904.15,493.685 2941.5,478C 2962.26,470.048 2983.59,465.215 3005.5,463.5 Z"/></g>
</svg>
