<?xml version="1.0" encoding="UTF-8"?>
<!DOCTYPE svg PUBLIC "-//W3C//DTD SVG 1.1//EN" "http://www.w3.org/Graphics/SVG/1.1/DTD/svg11.dtd">
<svg xmlns="http://www.w3.org/2000/svg" version="1.1" width="3896px" height="1172px" style="shape-rendering:geometricPrecision; text-rendering:geometricPrecision; image-rendering:optimizeQuality; fill-rule:evenodd; clip-rule:evenodd" xmlns:xlink="http://www.w3.org/1999/xlink">
<g><path style="opacity:0.6" fill="#f5bf18" d="M 22.5,263.5 C 169.178,263.028 315.844,263.528 462.5,265C 503.919,266.586 541.919,278.586 576.5,301C 631.391,347.322 655.557,406.488 649,478.5C 642.06,531.903 616.227,573.403 571.5,603C 558.946,610.778 545.946,617.778 532.5,624C 569.294,691.754 605.96,759.587 642.5,827.5C 671.826,828.5 701.159,828.833 730.5,828.5C 730.5,866.833 730.5,905.167 730.5,943.5C 661.163,943.833 591.83,943.5 522.5,942.5C 471.667,844.167 420.833,745.833 370,647.5C 344.241,646.505 318.408,646.172 292.5,646.5C 292.5,707.167 292.5,767.833 292.5,828.5C 320.833,828.5 349.167,828.5 377.5,828.5C 377.5,866.833 377.5,905.167 377.5,943.5C 258.833,943.5 140.167,943.5 21.5,943.5C 21.5,905.167 21.5,866.833 21.5,828.5C 52.8333,828.5 84.1667,828.5 115.5,828.5C 115.5,678.833 115.5,529.167 115.5,379.5C 84.2599,379.829 53.0932,379.496 22,378.5C 21.1734,340.095 21.3401,301.762 22.5,263.5 Z M 292.5,379.5 C 322.502,379.333 352.502,379.5 382.5,380C 447.546,385.705 473.712,420.538 461,484.5C 453.986,504.18 440.82,518.014 421.5,526C 407.996,531.368 393.996,534.701 379.5,536C 350.521,537.383 321.521,537.883 292.5,537.5C 292.5,484.833 292.5,432.167 292.5,379.5 Z"/></g>
<g><path style="opacity:0.6" fill="#f5bf18" d="M 1337.5,263.5 C 1412.83,263.5 1488.17,263.5 1563.5,263.5C 1563.5,453.833 1563.5,644.167 1563.5,834.5C 1586.17,834.5 1608.83,834.5 1631.5,834.5C 1631.5,870.833 1631.5,907.167 1631.5,943.5C 1533.5,943.5 1435.5,943.5 1337.5,943.5C 1337.5,907.167 1337.5,870.833 1337.5,834.5C 1362.5,834.5 1387.5,834.5 1412.5,834.5C 1412.5,680.833 1412.5,527.167 1412.5,373.5C 1387.5,373.5 1362.5,373.5 1337.5,373.5C 1337.5,336.833 1337.5,300.167 1337.5,263.5 Z"/></g>
<g><path style="opacity:0.6" fill="#f5bf18" d="M 1010.5,458.5 C 1097.73,454.878 1167.9,487.212 1221,555.5C 1240.43,584.766 1253.43,616.766 1260,651.5C 1265.74,680.217 1268.57,709.217 1268.5,738.5C 1151.17,738.5 1033.83,738.5 916.5,738.5C 917.236,795.029 944.236,832.196 997.5,850C 1029.51,859.88 1060.51,857.213 1090.5,842C 1098.77,837.396 1106.77,832.396 1114.5,827C 1125.27,818.729 1135.61,809.895 1145.5,800.5C 1184.64,812.77 1223.64,825.437 1262.5,838.5C 1226.22,896.232 1174.55,932.398 1107.5,947C 1045.16,959.223 983.495,956.556 922.5,939C 832.489,907.314 780.989,844.148 768,749.5C 761.257,692.956 770.59,639.289 796,588.5C 843.786,506.504 915.286,463.171 1010.5,458.5 Z M 1004.5,559.5 C 1055.59,556.78 1090.42,579.113 1109,626.5C 1112.11,635.626 1114.28,644.959 1115.5,654.5C 1050.17,654.5 984.833,654.5 919.5,654.5C 921.879,624.914 933.546,599.747 954.5,579C 969.419,567.863 986.085,561.363 1004.5,559.5 Z"/></g>
<g><path style="opacity:0.6" fill="#f5bf18" d="M 1937.5,458.5 C 2025.27,454.982 2095.77,487.649 2149,556.5C 2170.46,590.117 2184.13,626.783 2190,666.5C 2193.87,690.345 2195.7,714.345 2195.5,738.5C 2078.17,738.5 1960.83,738.5 1843.5,738.5C 1846.03,802.189 1878.37,840.689 1940.5,854C 1968.27,858.871 1994.61,854.538 2019.5,841C 2038.73,829.609 2056.4,816.109 2072.5,800.5C 2111.45,813.04 2150.45,825.373 2189.5,837.5C 2168.67,872.83 2140.34,900.664 2104.5,921C 2058.61,944.78 2009.77,955.947 1958,954.5C 1910.54,955.507 1865.04,946.674 1821.5,928C 1750.07,892.205 1708.23,834.705 1696,755.5C 1687.44,694.852 1697.44,637.518 1726,583.5C 1774.26,504.765 1844.76,463.099 1937.5,458.5 Z M 1932.5,559.5 C 1991.15,558.262 2027.32,586.262 2041,643.5C 2041.72,647.145 2042.22,650.812 2042.5,654.5C 1977.17,654.5 1911.83,654.5 1846.5,654.5C 1849.13,629.074 1858.3,606.408 1874,586.5C 1890.19,570.272 1909.69,561.272 1932.5,559.5 Z"/></g>
<g><path style="opacity:0.599" fill="#f5bf18" d="M 2491.5,458.5 C 2524.45,458.135 2557.12,460.968 2589.5,467C 2618.17,473.105 2644.5,484.438 2668.5,501C 2704.16,532.56 2721.66,572.394 2721,620.5C 2722.41,691.823 2722.91,763.157 2722.5,834.5C 2747.83,834.5 2773.17,834.5 2798.5,834.5C 2798.5,870.833 2798.5,907.167 2798.5,943.5C 2722.5,943.5 2646.5,943.5 2570.5,943.5C 2570.67,931.495 2570.5,919.495 2570,907.5C 2505.15,953.586 2435.32,962.753 2360.5,935C 2284.57,899.969 2256.07,841.469 2275,759.5C 2284.42,730.485 2300.92,706.318 2324.5,687C 2357.33,661.491 2394.67,647.158 2436.5,644C 2482.83,640.532 2527.33,648.032 2570,666.5C 2570.83,651.803 2570.49,637.136 2569,622.5C 2559.43,583.444 2534.6,561.61 2494.5,557C 2469.04,554.225 2445.04,558.892 2422.5,571C 2412.37,578.131 2402.54,585.631 2393,593.5C 2353.53,586.206 2314.03,579.039 2274.5,572C 2273.57,571.612 2272.91,570.945 2272.5,570C 2293.6,527.576 2326.26,497.576 2370.5,480C 2409.72,465.909 2450.06,458.742 2491.5,458.5 Z M 2482.5,734.5 C 2501.44,736.236 2519.44,741.402 2536.5,750C 2547.82,755.66 2558.82,761.827 2569.5,768.5C 2570.67,781.487 2570.83,794.487 2570,807.5C 2556.02,819.82 2541.18,830.987 2525.5,841C 2510.15,850.008 2493.65,855.174 2476,856.5C 2444.85,854.014 2425.18,837.681 2417,807.5C 2411.39,775.878 2423.22,753.712 2452.5,741C 2462.34,737.423 2472.34,735.256 2482.5,734.5 Z"/></g>
<g><path style="opacity:0.6" fill="#f5bf18" d="M 3603.5,458.5 C 3681.42,454.843 3746.92,481.177 3800,537.5C 3827.55,570.286 3845.22,607.952 3853,650.5C 3859.07,679.52 3861.9,708.853 3861.5,738.5C 3744.16,738.167 3626.83,738.5 3509.5,739.5C 3510.43,766.132 3518.27,790.465 3533,812.5C 3566.1,847.977 3606.6,861.477 3654.5,853C 3672.16,848.011 3688.49,840.344 3703.5,830C 3715.9,821.106 3727.57,811.273 3738.5,800.5C 3777.45,813.04 3816.45,825.373 3855.5,837.5C 3827.23,884.515 3787.23,917.682 3735.5,937C 3687.34,952.869 3638.01,958.202 3587.5,953C 3537.94,949.624 3492.61,934.291 3451.5,907C 3388.74,858.879 3358.07,794.879 3359.5,715C 3359.85,619.276 3399.85,545.609 3479.5,494C 3517.97,471.884 3559.31,460.051 3603.5,458.5 Z M 3598.5,559.5 C 3653.58,557.452 3689.08,582.785 3705,635.5C 3706.88,641.714 3708.04,648.048 3708.5,654.5C 3643.17,654.5 3577.83,654.5 3512.5,654.5C 3515.13,629.074 3524.3,606.408 3540,586.5C 3556.33,570.584 3575.83,561.584 3598.5,559.5 Z"/></g>
<g><path style="opacity:0.6" fill="#f5bf18" d="M 3005.5,463.5 C 3041.07,461.506 3076.07,465.006 3110.5,474C 3122.39,477.184 3133.89,481.351 3145,486.5C 3145.19,481.25 3145.69,476.083 3146.5,471C 3182.5,470.5 3218.5,470.333 3254.5,470.5C 3254.5,516.5 3254.5,562.5 3254.5,608.5C 3218.17,608.5 3181.83,608.5 3145.5,608.5C 3141.16,593.99 3132.49,582.823 3119.5,575C 3095.92,563.249 3070.92,558.083 3044.5,559.5C 3028.71,558.637 3013.38,560.803 2998.5,566C 2979.76,574.646 2974.26,588.479 2982,607.5C 2989.12,614.479 2997.62,618.979 3007.5,621C 3045.73,629.204 3084.06,636.871 3122.5,644C 3152.41,649.725 3181.41,658.392 3209.5,670C 3264.56,699.941 3290.06,746.441 3286,809.5C 3280.3,868.415 3250.8,910.582 3197.5,936C 3153.98,952.899 3108.98,958.565 3062.5,953C 3039.13,951.326 3017.13,944.993 2996.5,934C 2991.04,930.213 2985.88,926.046 2981,921.5C 2980.5,928.826 2980.33,936.159 2980.5,943.5C 2943.5,943.5 2906.5,943.5 2869.5,943.5C 2869.5,889.167 2869.5,834.833 2869.5,780.5C 2906.5,780.333 2943.5,780.5 2980.5,781C 2983.16,806.646 2995.83,825.646 3018.5,838C 3057.13,856.632 3096.46,858.298 3136.5,843C 3146.67,838.167 3154.17,830.667 3159,820.5C 3164.67,803.834 3160.17,790.667 3145.5,781C 3132.88,774.347 3119.54,769.681 3105.5,767C 3070.26,761.183 3035.26,754.183 3000.5,746C 2969.1,738.131 2939.44,726.131 2911.5,710C 2861.03,675.617 2842.53,628.451 2856,568.5C 2866.47,536.037 2885.97,510.537 2914.5,492C 2942.63,475.222 2972.96,465.722 3005.5,463.5 Z"/></g>
</svg>
