<?xml version="1.0" encoding="UTF-8"?>
<!DOCTYPE svg PUBLIC "-//W3C//DTD SVG 1.1//EN" "http://www.w3.org/Graphics/SVG/1.1/DTD/svg11.dtd">
<svg xmlns="http://www.w3.org/2000/svg" version="1.1" width="3896px" height="4396px" style="shape-rendering:geometricPrecision; text-rendering:geometricPrecision; image-rendering:optimizeQuality; fill-rule:evenodd; clip-rule:evenodd" xmlns:xlink="http://www.w3.org/1999/xlink">
<g><path style="opacity:1" fill="#f5c018" d="M 22.5,263.5 C 169.178,263.028 315.844,263.528 462.5,265C 503.919,266.586 541.919,278.586 576.5,301C 639.34,355.523 661.84,423.689 644,505.5C 631.663,546.832 607.496,579.332 571.5,603C 558.946,610.778 545.946,617.778 532.5,624C 569.294,691.754 605.96,759.587 642.5,827.5C 671.826,828.5 701.159,828.833 730.5,828.5C 730.5,866.833 730.5,905.167 730.5,943.5C 661.163,943.833 591.83,943.5 522.5,942.5C 471.667,844.167 420.833,745.833 370,647.5C 344.241,646.505 318.408,646.172 292.5,646.5C 292.5,707.167 292.5,767.833 292.5,828.5C 320.833,828.5 349.167,828.5 377.5,828.5C 377.5,866.833 377.5,905.167 377.5,943.5C 258.833,943.5 140.167,943.5 21.5,943.5C 21.5,905.167 21.5,866.833 21.5,828.5C 52.8333,828.5 84.1667,828.5 115.5,828.5C 115.5,678.833 115.5,529.167 115.5,379.5C 84.2599,379.829 53.0932,379.496 22,378.5C 21.1734,340.095 21.3401,301.762 22.5,263.5 Z M 292.5,379.5 C 322.502,379.333 352.502,379.5 382.5,380C 447.549,385.708 473.716,420.541 461,484.5C 453.986,504.18 440.82,518.014 421.5,526C 407.996,531.368 393.996,534.701 379.5,536C 350.521,537.383 321.521,537.883 292.5,537.5C 292.5,484.833 292.5,432.167 292.5,379.5 Z"/></g>
<g><path style="opacity:1" fill="#f5c018" d="M 1337.5,263.5 C 1412.83,263.5 1488.17,263.5 1563.5,263.5C 1563.5,453.833 1563.5,644.167 1563.5,834.5C 1586.17,834.5 1608.83,834.5 1631.5,834.5C 1631.5,870.833 1631.5,907.167 1631.5,943.5C 1533.5,943.5 1435.5,943.5 1337.5,943.5C 1337.5,907.167 1337.5,870.833 1337.5,834.5C 1362.5,834.5 1387.5,834.5 1412.5,834.5C 1412.5,680.833 1412.5,527.167 1412.5,373.5C 1387.5,373.5 1362.5,373.5 1337.5,373.5C 1337.5,336.833 1337.5,300.167 1337.5,263.5 Z"/></g>
<g><path style="opacity:0.999" fill="#f5c018" d="M 1937.5,458.5 C 2025.27,454.982 2095.77,487.649 2149,556.5C 2170.34,590.164 2184,626.831 2190,666.5C 2193.87,690.346 2195.7,714.346 2195.5,738.5C 2078.17,738.5 1960.83,738.5 1843.5,738.5C 1846.02,802.18 1878.36,840.68 1940.5,854C 1968.27,858.871 1994.61,854.538 2019.5,841C 2038.73,829.609 2056.4,816.109 2072.5,800.5C 2111.45,813.04 2150.45,825.373 2189.5,837.5C 2168.67,872.83 2140.34,900.664 2104.5,921C 2058.61,944.78 2009.77,955.947 1958,954.5C 1910.54,955.507 1865.04,946.674 1821.5,928C 1750.13,892.252 1708.29,834.752 1696,755.5C 1687.44,694.851 1697.44,637.517 1726,583.5C 1774.26,504.765 1844.76,463.099 1937.5,458.5 Z M 1932.5,559.5 C 1987.58,557.452 2023.08,582.785 2039,635.5C 2040.81,641.723 2041.98,648.056 2042.5,654.5C 1977.17,654.5 1911.83,654.5 1846.5,654.5C 1849.17,629.626 1858.01,607.293 1873,587.5C 1889.29,570.572 1909.13,561.239 1932.5,559.5 Z"/></g>
<g><path style="opacity:0.999" fill="#f5c018" d="M 2491.5,458.5 C 2524.45,458.135 2557.12,460.968 2589.5,467C 2618.17,473.105 2644.5,484.438 2668.5,501C 2704.16,532.56 2721.66,572.394 2721,620.5C 2722.41,691.823 2722.91,763.157 2722.5,834.5C 2747.83,834.5 2773.17,834.5 2798.5,834.5C 2798.5,870.833 2798.5,907.167 2798.5,943.5C 2722.5,943.5 2646.5,943.5 2570.5,943.5C 2570.67,931.495 2570.5,919.495 2570,907.5C 2505.15,953.586 2435.32,962.753 2360.5,935C 2284.57,899.972 2256.07,841.472 2275,759.5C 2284.42,730.485 2300.92,706.318 2324.5,687C 2357.33,661.491 2394.67,647.158 2436.5,644C 2482.83,640.532 2527.33,648.032 2570,666.5C 2570.83,651.803 2570.49,637.136 2569,622.5C 2559.47,583.455 2534.64,561.622 2494.5,557C 2469.04,554.225 2445.04,558.892 2422.5,571C 2412.37,578.131 2402.54,585.631 2393,593.5C 2353.53,586.206 2314.03,579.039 2274.5,572C 2273.57,571.612 2272.91,570.945 2272.5,570C 2293.6,527.576 2326.26,497.576 2370.5,480C 2409.72,465.909 2450.06,458.742 2491.5,458.5 Z M 2482.5,734.5 C 2501.44,736.236 2519.44,741.402 2536.5,750C 2547.82,755.66 2558.82,761.827 2569.5,768.5C 2570.67,781.487 2570.83,794.487 2570,807.5C 2556.02,819.82 2541.18,830.987 2525.5,841C 2510.15,850.008 2493.65,855.174 2476,856.5C 2438.3,852.5 2418.14,831.5 2415.5,793.5C 2416.3,767.867 2428.63,750.367 2452.5,741C 2462.34,737.423 2472.34,735.256 2482.5,734.5 Z"/></g>
<g><path style="opacity:0.999" fill="#f5c018" d="M 3603.5,458.5 C 3691.27,454.982 3761.77,487.649 3815,556.5C 3838.84,594.01 3853.17,635.01 3858,679.5C 3860.49,699.09 3861.66,718.756 3861.5,738.5C 3744.17,738.5 3626.83,738.5 3509.5,738.5C 3512.02,802.18 3544.36,840.68 3606.5,854C 3634.27,858.871 3660.61,854.538 3685.5,841C 3704.73,829.609 3722.4,816.109 3738.5,800.5C 3777.45,813.04 3816.45,825.373 3855.5,837.5C 3827.23,884.515 3787.23,917.682 3735.5,937C 3687.34,952.869 3638.01,958.202 3587.5,953C 3537.94,949.624 3492.61,934.291 3451.5,907C 3400.8,869.136 3370.97,818.636 3362,755.5C 3353.44,694.851 3363.44,637.517 3392,583.5C 3440.26,504.765 3510.76,463.099 3603.5,458.5 Z M 3598.5,559.5 C 3653.58,557.452 3689.08,582.785 3705,635.5C 3706.88,641.714 3708.04,648.048 3708.5,654.5C 3643.17,654.5 3577.83,654.5 3512.5,654.5C 3515.17,629.626 3524.01,607.293 3539,587.5C 3555.47,570.959 3575.3,561.625 3598.5,559.5 Z"/></g>
<g><path style="opacity:0.999" fill="#f5c018" d="M 1010.5,458.5 C 1097.73,454.878 1167.9,487.212 1221,555.5C 1240.43,584.766 1253.43,616.766 1260,651.5C 1265.74,680.217 1268.57,709.217 1268.5,738.5C 1151.17,738.5 1033.83,738.5 916.5,738.5C 917.237,795.03 944.237,832.196 997.5,850C 1029.51,859.88 1060.51,857.213 1090.5,842C 1110.68,830.665 1129.01,816.831 1145.5,800.5C 1184.64,812.77 1223.64,825.437 1262.5,838.5C 1226.22,896.232 1174.55,932.398 1107.5,947C 1045.16,959.223 983.495,956.556 922.5,939C 848.812,913.979 799.978,864.479 776,790.5C 764.494,744.074 763.494,697.407 773,650.5C 792.823,571.349 839.656,514.516 913.5,480C 944.72,467.258 977.054,460.092 1010.5,458.5 Z M 1004.5,559.5 C 1057.16,556.731 1092.33,580.064 1110,629.5C 1112.63,637.671 1114.46,646.004 1115.5,654.5C 1050.17,654.5 984.833,654.5 919.5,654.5C 921.879,624.914 933.546,599.747 954.5,579C 969.419,567.863 986.085,561.363 1004.5,559.5 Z"/></g>
<g><path style="opacity:0.999" fill="#f5c018" d="M 3005.5,463.5 C 3041.07,461.506 3076.07,465.006 3110.5,474C 3122.39,477.184 3133.89,481.351 3145,486.5C 3145.19,481.25 3145.69,476.083 3146.5,471C 3182.5,470.5 3218.5,470.333 3254.5,470.5C 3254.5,516.5 3254.5,562.5 3254.5,608.5C 3218.17,608.5 3181.83,608.5 3145.5,608.5C 3141.16,593.99 3132.49,582.823 3119.5,575C 3095.92,563.249 3070.92,558.083 3044.5,559.5C 3028.71,558.637 3013.38,560.803 2998.5,566C 2981.46,573.588 2975.29,586.422 2980,604.5C 2986.98,613.418 2996.15,618.918 3007.5,621C 3045.73,629.204 3084.06,636.871 3122.5,644C 3152.41,649.725 3181.41,658.392 3209.5,670C 3264.56,699.941 3290.06,746.441 3286,809.5C 3280.3,868.415 3250.8,910.582 3197.5,936C 3153.98,952.899 3108.98,958.565 3062.5,953C 3039.13,951.326 3017.13,944.993 2996.5,934C 2991.04,930.213 2985.88,926.046 2981,921.5C 2980.5,928.826 2980.33,936.159 2980.5,943.5C 2943.5,943.5 2906.5,943.5 2869.5,943.5C 2869.5,889.167 2869.5,834.833 2869.5,780.5C 2906.5,780.333 2943.5,780.5 2980.5,781C 2982.5,802.999 2992.5,820.332 3010.5,833C 3035.61,848.444 3062.94,855.11 3092.5,853C 3111.26,852.647 3128.59,847.647 3144.5,838C 3161.09,825.805 3165.26,810.305 3157,791.5C 3149.93,783.046 3141.1,777.213 3130.5,774C 3122.21,771.511 3113.88,769.178 3105.5,767C 3070.26,761.183 3035.26,754.183 3000.5,746C 2969.1,738.131 2939.44,726.131 2911.5,710C 2857.03,671.606 2839.87,620.439 2860,556.5C 2876.96,519.88 2904.12,493.713 2941.5,478C 2962.26,470.048 2983.59,465.215 3005.5,463.5 Z"/></g>
<g><path style="opacity:0.6" fill="#f5bf18" d="M 22.5,1875.5 C 169.178,1875.03 315.844,1875.53 462.5,1877C 503.919,1878.59 541.919,1890.59 576.5,1913C 631.391,1959.32 655.557,2018.49 649,2090.5C 642.06,2143.9 616.227,2185.4 571.5,2215C 558.946,2222.78 545.946,2229.78 532.5,2236C 569.294,2303.75 605.96,2371.59 642.5,2439.5C 671.826,2440.5 701.159,2440.83 730.5,2440.5C 730.5,2478.83 730.5,2517.17 730.5,2555.5C 661.163,2555.83 591.83,2555.5 522.5,2554.5C 471.667,2456.17 420.833,2357.83 370,2259.5C 344.241,2258.51 318.408,2258.17 292.5,2258.5C 292.5,2319.17 292.5,2379.83 292.5,2440.5C 320.833,2440.5 349.167,2440.5 377.5,2440.5C 377.5,2478.83 377.5,2517.17 377.5,2555.5C 258.833,2555.5 140.167,2555.5 21.5,2555.5C 21.5,2517.17 21.5,2478.83 21.5,2440.5C 52.8333,2440.5 84.1667,2440.5 115.5,2440.5C 115.5,2290.83 115.5,2141.17 115.5,1991.5C 84.2599,1991.83 53.0932,1991.5 22,1990.5C 21.1734,1952.1 21.3401,1913.76 22.5,1875.5 Z M 292.5,1991.5 C 322.502,1991.33 352.502,1991.5 382.5,1992C 447.546,1997.7 473.712,2032.54 461,2096.5C 453.986,2116.18 440.82,2130.01 421.5,2138C 407.996,2143.37 393.996,2146.7 379.5,2148C 350.521,2149.38 321.521,2149.88 292.5,2149.5C 292.5,2096.83 292.5,2044.17 292.5,1991.5 Z"/></g>
<g><path style="opacity:0.6" fill="#f5bf18" d="M 1337.5,1875.5 C 1412.83,1875.5 1488.17,1875.5 1563.5,1875.5C 1563.5,2065.83 1563.5,2256.17 1563.5,2446.5C 1586.17,2446.5 1608.83,2446.5 1631.5,2446.5C 1631.5,2482.83 1631.5,2519.17 1631.5,2555.5C 1533.5,2555.5 1435.5,2555.5 1337.5,2555.5C 1337.5,2519.17 1337.5,2482.83 1337.5,2446.5C 1362.5,2446.5 1387.5,2446.5 1412.5,2446.5C 1412.5,2292.83 1412.5,2139.17 1412.5,1985.5C 1387.5,1985.5 1362.5,1985.5 1337.5,1985.5C 1337.5,1948.83 1337.5,1912.17 1337.5,1875.5 Z"/></g>
<g><path style="opacity:0.6" fill="#f5bf18" d="M 1010.5,2070.5 C 1097.73,2066.88 1167.9,2099.21 1221,2167.5C 1240.43,2196.77 1253.43,2228.77 1260,2263.5C 1265.74,2292.22 1268.57,2321.22 1268.5,2350.5C 1151.17,2350.5 1033.83,2350.5 916.5,2350.5C 917.236,2407.03 944.236,2444.2 997.5,2462C 1029.51,2471.88 1060.51,2469.21 1090.5,2454C 1098.77,2449.4 1106.77,2444.4 1114.5,2439C 1125.27,2430.73 1135.61,2421.9 1145.5,2412.5C 1184.64,2424.77 1223.64,2437.44 1262.5,2450.5C 1226.22,2508.23 1174.55,2544.4 1107.5,2559C 1045.16,2571.22 983.495,2568.56 922.5,2551C 832.489,2519.31 780.989,2456.15 768,2361.5C 761.257,2304.96 770.59,2251.29 796,2200.5C 843.786,2118.5 915.286,2075.17 1010.5,2070.5 Z M 1004.5,2171.5 C 1055.59,2168.78 1090.42,2191.11 1109,2238.5C 1112.11,2247.63 1114.28,2256.96 1115.5,2266.5C 1050.17,2266.5 984.833,2266.5 919.5,2266.5C 921.879,2236.91 933.546,2211.75 954.5,2191C 969.419,2179.86 986.085,2173.36 1004.5,2171.5 Z"/></g>
<g><path style="opacity:0.6" fill="#f5bf18" d="M 1937.5,2070.5 C 2025.27,2066.98 2095.77,2099.65 2149,2168.5C 2170.46,2202.12 2184.13,2238.78 2190,2278.5C 2193.87,2302.34 2195.7,2326.34 2195.5,2350.5C 2078.17,2350.5 1960.83,2350.5 1843.5,2350.5C 1846.03,2414.19 1878.37,2452.69 1940.5,2466C 1968.27,2470.87 1994.61,2466.54 2019.5,2453C 2038.73,2441.61 2056.4,2428.11 2072.5,2412.5C 2111.45,2425.04 2150.45,2437.37 2189.5,2449.5C 2168.67,2484.83 2140.34,2512.66 2104.5,2533C 2058.61,2556.78 2009.77,2567.95 1958,2566.5C 1910.54,2567.51 1865.04,2558.67 1821.5,2540C 1750.07,2504.21 1708.23,2446.71 1696,2367.5C 1687.44,2306.85 1697.44,2249.52 1726,2195.5C 1774.26,2116.77 1844.76,2075.1 1937.5,2070.5 Z M 1932.5,2171.5 C 1991.15,2170.26 2027.32,2198.26 2041,2255.5C 2041.72,2259.15 2042.22,2262.81 2042.5,2266.5C 1977.17,2266.5 1911.83,2266.5 1846.5,2266.5C 1849.13,2241.07 1858.3,2218.41 1874,2198.5C 1890.19,2182.27 1909.69,2173.27 1932.5,2171.5 Z"/></g>
<g><path style="opacity:0.599" fill="#f5bf18" d="M 2491.5,2070.5 C 2524.45,2070.14 2557.12,2072.97 2589.5,2079C 2618.17,2085.1 2644.5,2096.44 2668.5,2113C 2704.16,2144.56 2721.66,2184.39 2721,2232.5C 2722.41,2303.82 2722.91,2375.16 2722.5,2446.5C 2747.83,2446.5 2773.17,2446.5 2798.5,2446.5C 2798.5,2482.83 2798.5,2519.17 2798.5,2555.5C 2722.5,2555.5 2646.5,2555.5 2570.5,2555.5C 2570.67,2543.5 2570.5,2531.5 2570,2519.5C 2505.15,2565.59 2435.32,2574.75 2360.5,2547C 2284.57,2511.97 2256.07,2453.47 2275,2371.5C 2284.42,2342.48 2300.92,2318.32 2324.5,2299C 2357.33,2273.49 2394.67,2259.16 2436.5,2256C 2482.83,2252.53 2527.33,2260.03 2570,2278.5C 2570.83,2263.8 2570.49,2249.14 2569,2234.5C 2559.43,2195.44 2534.6,2173.61 2494.5,2169C 2469.04,2166.23 2445.04,2170.89 2422.5,2183C 2412.37,2190.13 2402.54,2197.63 2393,2205.5C 2353.53,2198.21 2314.03,2191.04 2274.5,2184C 2273.57,2183.61 2272.91,2182.95 2272.5,2182C 2293.6,2139.58 2326.26,2109.58 2370.5,2092C 2409.72,2077.91 2450.06,2070.74 2491.5,2070.5 Z M 2482.5,2346.5 C 2501.44,2348.24 2519.44,2353.4 2536.5,2362C 2547.82,2367.66 2558.82,2373.83 2569.5,2380.5C 2570.67,2393.49 2570.83,2406.49 2570,2419.5C 2556.02,2431.82 2541.18,2442.99 2525.5,2453C 2510.15,2462.01 2493.65,2467.17 2476,2468.5C 2444.85,2466.01 2425.18,2449.68 2417,2419.5C 2411.39,2387.88 2423.22,2365.71 2452.5,2353C 2462.34,2349.42 2472.34,2347.26 2482.5,2346.5 Z"/></g>
<g><path style="opacity:0.6" fill="#f5bf18" d="M 3603.5,2070.5 C 3681.42,2066.84 3746.92,2093.18 3800,2149.5C 3827.55,2182.29 3845.22,2219.95 3853,2262.5C 3859.07,2291.52 3861.9,2320.85 3861.5,2350.5C 3744.16,2350.17 3626.83,2350.5 3509.5,2351.5C 3510.43,2378.13 3518.27,2402.46 3533,2424.5C 3566.1,2459.98 3606.6,2473.48 3654.5,2465C 3672.16,2460.01 3688.49,2452.34 3703.5,2442C 3715.9,2433.11 3727.57,2423.27 3738.5,2412.5C 3777.45,2425.04 3816.45,2437.37 3855.5,2449.5C 3827.23,2496.52 3787.23,2529.68 3735.5,2549C 3687.34,2564.87 3638.01,2570.2 3587.5,2565C 3537.94,2561.62 3492.61,2546.29 3451.5,2519C 3388.74,2470.88 3358.07,2406.88 3359.5,2327C 3359.85,2231.28 3399.85,2157.61 3479.5,2106C 3517.97,2083.88 3559.31,2072.05 3603.5,2070.5 Z M 3598.5,2171.5 C 3653.58,2169.45 3689.08,2194.79 3705,2247.5C 3706.88,2253.71 3708.04,2260.05 3708.5,2266.5C 3643.17,2266.5 3577.83,2266.5 3512.5,2266.5C 3515.13,2241.07 3524.3,2218.41 3540,2198.5C 3556.33,2182.58 3575.83,2173.58 3598.5,2171.5 Z"/></g>
<g><path style="opacity:0.6" fill="#f5bf18" d="M 3005.5,2075.5 C 3041.07,2073.51 3076.07,2077.01 3110.5,2086C 3122.39,2089.18 3133.89,2093.35 3145,2098.5C 3145.19,2093.25 3145.69,2088.08 3146.5,2083C 3182.5,2082.5 3218.5,2082.33 3254.5,2082.5C 3254.5,2128.5 3254.5,2174.5 3254.5,2220.5C 3218.17,2220.5 3181.83,2220.5 3145.5,2220.5C 3141.16,2205.99 3132.49,2194.82 3119.5,2187C 3095.92,2175.25 3070.92,2170.08 3044.5,2171.5C 3028.71,2170.64 3013.38,2172.8 2998.5,2178C 2979.76,2186.65 2974.26,2200.48 2982,2219.5C 2989.12,2226.48 2997.62,2230.98 3007.5,2233C 3045.73,2241.2 3084.06,2248.87 3122.5,2256C 3152.41,2261.73 3181.41,2270.39 3209.5,2282C 3264.56,2311.94 3290.06,2358.44 3286,2421.5C 3280.3,2480.42 3250.8,2522.58 3197.5,2548C 3153.98,2564.9 3108.98,2570.57 3062.5,2565C 3039.13,2563.33 3017.13,2556.99 2996.5,2546C 2991.04,2542.21 2985.88,2538.05 2981,2533.5C 2980.5,2540.83 2980.33,2548.16 2980.5,2555.5C 2943.5,2555.5 2906.5,2555.5 2869.5,2555.5C 2869.5,2501.17 2869.5,2446.83 2869.5,2392.5C 2906.5,2392.33 2943.5,2392.5 2980.5,2393C 2983.16,2418.65 2995.83,2437.65 3018.5,2450C 3057.13,2468.63 3096.46,2470.3 3136.5,2455C 3146.67,2450.17 3154.17,2442.67 3159,2432.5C 3164.67,2415.83 3160.17,2402.67 3145.5,2393C 3132.88,2386.35 3119.54,2381.68 3105.5,2379C 3070.26,2373.18 3035.26,2366.18 3000.5,2358C 2969.1,2350.13 2939.44,2338.13 2911.5,2322C 2861.03,2287.62 2842.53,2240.45 2856,2180.5C 2866.47,2148.04 2885.97,2122.54 2914.5,2104C 2942.63,2087.22 2972.96,2077.72 3005.5,2075.5 Z"/></g>
<g><path style="opacity:0.302" fill="#f5bf16" d="M 22.5,3487.5 C 169.178,3487.03 315.844,3487.53 462.5,3489C 497.038,3490.74 529.705,3499.4 560.5,3515C 580.771,3526.27 597.604,3541.43 611,3560.5C 653.235,3620.82 661.235,3685.49 635,3754.5C 617.71,3789.12 592.21,3815.96 558.5,3835C 550.112,3839.86 541.446,3844.19 532.5,3848C 569.294,3915.75 605.96,3983.59 642.5,4051.5C 671.826,4052.5 701.159,4052.83 730.5,4052.5C 730.5,4090.83 730.5,4129.17 730.5,4167.5C 661.163,4167.83 591.83,4167.5 522.5,4166.5C 471.667,4068.17 420.833,3969.83 370,3871.5C 344.241,3870.51 318.408,3870.17 292.5,3870.5C 292.5,3931.17 292.5,3991.83 292.5,4052.5C 320.833,4052.5 349.167,4052.5 377.5,4052.5C 377.5,4090.83 377.5,4129.17 377.5,4167.5C 258.833,4167.5 140.167,4167.5 21.5,4167.5C 21.5,4129.17 21.5,4090.83 21.5,4052.5C 52.8333,4052.5 84.1667,4052.5 115.5,4052.5C 115.5,3902.83 115.5,3753.17 115.5,3603.5C 84.2599,3603.83 53.0932,3603.5 22,3602.5C 21.1734,3564.1 21.3401,3525.76 22.5,3487.5 Z M 292.5,3603.5 C 322.502,3603.33 352.502,3603.5 382.5,3604C 406.361,3604.87 427.361,3612.87 445.5,3628C 458.951,3643.01 465.284,3660.68 464.5,3681C 465.372,3713.61 451.039,3736.61 421.5,3750C 407.996,3755.37 393.996,3758.7 379.5,3760C 350.521,3761.38 321.521,3761.88 292.5,3761.5C 292.5,3708.83 292.5,3656.17 292.5,3603.5 Z"/></g>
<g><path style="opacity:0.302" fill="#f5bf16" d="M 1337.5,3487.5 C 1412.83,3487.5 1488.17,3487.5 1563.5,3487.5C 1563.5,3677.83 1563.5,3868.17 1563.5,4058.5C 1586.17,4058.5 1608.83,4058.5 1631.5,4058.5C 1631.5,4094.83 1631.5,4131.17 1631.5,4167.5C 1533.5,4167.5 1435.5,4167.5 1337.5,4167.5C 1337.5,4131.17 1337.5,4094.83 1337.5,4058.5C 1362.5,4058.5 1387.5,4058.5 1412.5,4058.5C 1412.5,3904.83 1412.5,3751.17 1412.5,3597.5C 1387.5,3597.5 1362.5,3597.5 1337.5,3597.5C 1337.5,3560.83 1337.5,3524.17 1337.5,3487.5 Z"/></g>
<g><path style="opacity:0.301" fill="#f5bf16" d="M 1010.5,3682.5 C 1097.73,3678.88 1167.9,3711.21 1221,3779.5C 1239.69,3807.56 1252.36,3838.23 1259,3871.5C 1265.47,3901.49 1268.63,3931.82 1268.5,3962.5C 1151.17,3962.5 1033.83,3962.5 916.5,3962.5C 917.501,4020.39 945.501,4057.89 1000.5,4075C 1031.6,4083.73 1061.6,4080.73 1090.5,4066C 1098.84,4061.5 1106.84,4056.5 1114.5,4051C 1125.27,4042.73 1135.61,4033.9 1145.5,4024.5C 1184.64,4036.77 1223.64,4049.44 1262.5,4062.5C 1226.86,4118.6 1176.52,4154.43 1111.5,4170C 1047.9,4183.28 984.904,4180.95 922.5,4163C 848.812,4137.98 799.978,4088.48 776,4014.5C 764.494,3968.07 763.494,3921.4 773,3874.5C 792.806,3795.38 839.64,3738.55 913.5,3704C 944.719,3691.26 977.052,3684.09 1010.5,3682.5 Z M 1004.5,3783.5 C 1057.16,3780.73 1092.33,3804.06 1110,3853.5C 1112.63,3861.67 1114.46,3870 1115.5,3878.5C 1050.17,3878.5 984.833,3878.5 919.5,3878.5C 921.867,3854.56 930.033,3832.89 944,3813.5C 960.296,3795.6 980.463,3785.6 1004.5,3783.5 Z"/></g>
<g><path style="opacity:0.301" fill="#f5bf16" d="M 1937.5,3682.5 C 2025.28,3678.99 2095.78,3711.65 2149,3780.5C 2170.35,3814.19 2184.01,3850.86 2190,3890.5C 2193.85,3914.35 2195.68,3938.35 2195.5,3962.5C 2078.17,3962.5 1960.83,3962.5 1843.5,3962.5C 1844.06,3991.44 1852.89,4017.44 1870,4040.5C 1908.63,4077.7 1953.46,4088.2 2004.5,4072C 2030.1,4060.37 2052.77,4044.53 2072.5,4024.5C 2111.45,4037.04 2150.45,4049.37 2189.5,4061.5C 2168.28,4097.55 2139.28,4125.71 2102.5,4146C 2057.13,4168.98 2008.96,4179.82 1958,4178.5C 1909.77,4179.45 1863.6,4170.29 1819.5,4151C 1749.07,4115.19 1707.91,4058.03 1696,3979.5C 1687.44,3918.85 1697.44,3861.52 1726,3807.5C 1774.26,3728.77 1844.76,3687.1 1937.5,3682.5 Z M 1932.5,3783.5 C 1987.58,3781.45 2023.08,3806.79 2039,3859.5C 2040.81,3865.72 2041.98,3872.06 2042.5,3878.5C 1977.17,3878.5 1911.83,3878.5 1846.5,3878.5C 1849.17,3853.63 1858.01,3831.3 1873,3811.5C 1889.29,3794.57 1909.13,3785.24 1932.5,3783.5 Z"/></g>
<g><path style="opacity:0.302" fill="#f4bf16" d="M 2491.5,3682.5 C 2524.45,3682.14 2557.12,3684.97 2589.5,3691C 2618.73,3697.07 2645.4,3708.73 2669.5,3726C 2704.45,3757.46 2721.62,3796.96 2721,3844.5C 2722.41,3915.82 2722.91,3987.16 2722.5,4058.5C 2747.83,4058.5 2773.17,4058.5 2798.5,4058.5C 2798.5,4094.83 2798.5,4131.17 2798.5,4167.5C 2722.5,4167.5 2646.5,4167.5 2570.5,4167.5C 2570.67,4155.5 2570.5,4143.5 2570,4131.5C 2505.13,4177.59 2435.3,4186.75 2360.5,4159C 2287.71,4126.27 2258.55,4070.43 2273,3991.5C 2280.64,3961.72 2295.8,3936.55 2318.5,3916C 2346.92,3891.29 2379.92,3875.96 2417.5,3870C 2459.29,3863.53 2500.29,3866.86 2540.5,3880C 2550.5,3883.11 2560.33,3886.61 2570,3890.5C 2571.06,3874.08 2570.4,3857.75 2568,3841.5C 2556.77,3805.44 2532.27,3785.27 2494.5,3781C 2463.62,3777.72 2435.62,3785.05 2410.5,3803C 2404.95,3808.22 2399.11,3813.06 2393,3817.5C 2352.84,3810.1 2312.67,3802.77 2272.5,3795.5C 2280.23,3777.72 2290.73,3761.72 2304,3747.5C 2335.15,3718.01 2371.98,3699.17 2414.5,3691C 2440.1,3686.18 2465.76,3683.34 2491.5,3682.5 Z M 2482.5,3958.5 C 2504.51,3960.67 2525.17,3967.17 2544.5,3978C 2552.83,3982.83 2561.17,3987.67 2569.5,3992.5C 2570.67,4005.49 2570.83,4018.49 2570,4031.5C 2552,4048.42 2531.84,4062.25 2509.5,4073C 2489.08,4081.72 2468.75,4082.05 2448.5,4074C 2419.99,4055.51 2410.16,4029.67 2419,3996.5C 2428.73,3977.36 2444.23,3965.52 2465.5,3961C 2471.3,3960.11 2476.97,3959.28 2482.5,3958.5 Z"/></g>
<g><path style="opacity:0.301" fill="#f5bf16" d="M 3603.5,3682.5 C 3691.28,3678.99 3761.78,3711.65 3815,3780.5C 3838.85,3818.04 3853.18,3859.04 3858,3903.5C 3860.49,3923.09 3861.66,3942.76 3861.5,3962.5C 3744.17,3962.5 3626.83,3962.5 3509.5,3962.5C 3512.02,4026.18 3544.35,4064.68 3606.5,4078C 3634.27,4082.87 3660.61,4078.54 3685.5,4065C 3704.73,4053.61 3722.4,4040.11 3738.5,4024.5C 3777.45,4037.04 3816.45,4049.37 3855.5,4061.5C 3834.28,4097.55 3805.28,4125.71 3768.5,4146C 3723.13,4168.98 3674.96,4179.82 3624,4178.5C 3575.77,4179.45 3529.6,4170.29 3485.5,4151C 3415.07,4115.19 3373.91,4058.03 3362,3979.5C 3353.44,3918.85 3363.44,3861.52 3392,3807.5C 3440.26,3728.77 3510.76,3687.1 3603.5,3682.5 Z M 3598.5,3783.5 C 3653.58,3781.45 3689.08,3806.79 3705,3859.5C 3706.88,3865.71 3708.04,3872.05 3708.5,3878.5C 3643.17,3878.5 3577.83,3878.5 3512.5,3878.5C 3515.17,3853.63 3524.01,3831.29 3539,3811.5C 3555.29,3794.57 3575.13,3785.24 3598.5,3783.5 Z"/></g>
<g><path style="opacity:0.301" fill="#f5bf16" d="M 3005.5,3687.5 C 3043.57,3685.28 3080.9,3689.45 3117.5,3700C 3127,3702.72 3136.16,3706.22 3145,3710.5C 3145.19,3705.25 3145.69,3700.08 3146.5,3695C 3182.5,3694.5 3218.5,3694.33 3254.5,3694.5C 3254.5,3740.5 3254.5,3786.5 3254.5,3832.5C 3218.17,3832.5 3181.83,3832.5 3145.5,3832.5C 3142.26,3819.76 3135.26,3809.59 3124.5,3802C 3111.29,3793.71 3096.96,3788.37 3081.5,3786C 3058.15,3782.73 3034.82,3782.73 3011.5,3786C 3000.69,3787.82 2991.53,3792.65 2984,3800.5C 2978.35,3809.15 2977.02,3818.49 2980,3828.5C 2982.13,3831.63 2984.63,3834.46 2987.5,3837C 2993.85,3840.45 3000.51,3843.12 3007.5,3845C 3048.75,3853.72 3090.08,3862.05 3131.5,3870C 3158.28,3875.53 3184.28,3883.53 3209.5,3894C 3264.56,3923.94 3290.06,3970.44 3286,4033.5C 3279.86,4094.62 3248.7,4137.46 3192.5,4162C 3150.4,4177.21 3107.07,4182.21 3062.5,4177C 3037.79,4175.41 3014.79,4168.41 2993.5,4156C 2989.33,4152.5 2985.17,4149 2981,4145.5C 2980.5,4152.83 2980.33,4160.16 2980.5,4167.5C 2943.5,4167.5 2906.5,4167.5 2869.5,4167.5C 2869.5,4113.17 2869.5,4058.83 2869.5,4004.5C 2906.5,4004.33 2943.5,4004.5 2980.5,4005C 2984,4034.18 2999.33,4054.51 3026.5,4066C 3060.35,4079.68 3094.68,4081.01 3129.5,4070C 3143.53,4065.08 3153.7,4055.91 3160,4042.5C 3163.98,4028.1 3160.14,4016.27 3148.5,4007C 3135.19,3999.12 3120.86,3993.78 3105.5,3991C 3080.56,3986.01 3055.56,3981.34 3030.5,3977C 2990.34,3969.62 2952.34,3956.28 2916.5,3937C 2858.27,3899.33 2839.44,3847.16 2860,3780.5C 2876.98,3743.85 2904.15,3717.68 2941.5,3702C 2962.26,3694.05 2983.59,3689.21 3005.5,3687.5 Z"/></g>
</svg>
