<?xml version="1.0" encoding="UTF-8"?>
<!DOCTYPE svg PUBLIC "-//W3C//DTD SVG 1.1//EN" "http://www.w3.org/Graphics/SVG/1.1/DTD/svg11.dtd">
<svg xmlns="http://www.w3.org/2000/svg" version="1.1" width="2548px" height="3048px" style="shape-rendering:geometricPrecision; text-rendering:geometricPrecision; image-rendering:optimizeQuality; fill-rule:evenodd; clip-rule:evenodd" xmlns:xlink="http://www.w3.org/1999/xlink">
<g><path style="opacity:0.997" fill="#fefffe" d="M 1166.5,-0.5 C 1205.83,-0.5 1245.17,-0.5 1284.5,-0.5C 1438.76,8.89108 1584.43,48.3911 1721.5,118C 1817.04,167.913 1899.54,234.413 1969,317.5C 2064.48,439.684 2111.65,579.018 2110.5,735.5C 2109.99,815.226 2099.49,893.559 2079,970.5C 2059.6,1032.06 2033.27,1090.39 2000,1145.5C 1943.46,1236.43 1875.3,1318.26 1795.5,1391C 1725.79,1454.74 1650.45,1510.74 1569.5,1559C 1617.2,1599.03 1662.03,1642.2 1704,1688.5C 1951.61,1963.04 2112.94,2282.38 2188,2646.5C 2213.55,2778.23 2226.05,2911.23 2225.5,3045.5C 1998.83,3045.5 1772.17,3045.5 1545.5,3045.5C 1534.1,2867.56 1510.93,2691.22 1476,2516.5C 1455.96,2419.58 1427.62,2325.24 1391,2233.5C 1374.21,2194.26 1354.55,2156.59 1332,2120.5C 1308.83,2084.38 1280.66,2052.55 1247.5,2025C 1215.18,2000.85 1179.18,1984.18 1139.5,1975C 1091.48,1961.46 1042.48,1954.29 992.5,1953.5C 937.385,1952.79 885.051,1964.29 835.5,1988C 770.345,2023.17 726.178,2076 703,2146.5C 690.338,2190.89 684.505,2236.23 685.5,2282.5C 686.641,2345.96 692.474,2408.96 703,2471.5C 723.24,2583.41 751.573,2693.08 788,2800.5C 816.363,2884.39 848.197,2966.72 883.5,3047.5C 668.833,3047.5 454.167,3047.5 239.5,3047.5C 203.902,2979.86 173.402,2909.86 148,2837.5C 73.3866,2622.01 27.0533,2400.34 9,2172.5C 4.91877,2121.07 1.75211,2069.73 -0.5,2018.5C -0.5,1949.83 -0.5,1881.17 -0.5,1812.5C 11.0559,1518.97 56.8893,1230.97 137,948.5C 177.449,823.496 226.783,702.496 285,585.5C 325.25,506.332 372.583,431.665 427,361.5C 536.673,222.74 675.507,125.574 843.5,70C 917.945,45.8555 993.612,26.1889 1070.5,11C 1102.44,5.50997 1134.44,1.67663 1166.5,-0.5 Z M 1303.5,458.5 C 1364.97,458.52 1423.97,470.354 1480.5,494C 1519.93,512.836 1553.1,539.669 1580,574.5C 1642.98,661.26 1678.65,758.594 1687,866.5C 1691.79,929.443 1682.46,990.109 1659,1048.5C 1649.31,1069.55 1637.81,1089.55 1624.5,1108.5C 1594.99,1140.29 1558.66,1159.13 1515.5,1165C 1470.33,1170.38 1425.66,1167.71 1381.5,1157C 1310,1138.85 1242.67,1111.18 1179.5,1074C 1101.81,1029.01 1032.98,972.839 973,905.5C 941.453,869.411 916.786,829.078 899,784.5C 885.539,747.239 884.206,709.572 895,671.5C 902.041,654.41 911.374,638.744 923,624.5C 1014.14,528.515 1125.98,474.015 1258.5,461C 1273.67,460.362 1288.67,459.529 1303.5,458.5 Z"/></g>
<g><path style="opacity:0.998" fill="#f6bf14" d="M 2547.5,1516.5 C 2547.5,1557.17 2547.5,1597.83 2547.5,1638.5C 2545.95,1654.68 2544.45,1671.01 2543,1687.5C 2541.36,1701.29 2539.19,1714.95 2536.5,1728.5C 2449.03,1640.81 2353.03,1564.31 2248.5,1499C 2152.2,1440.7 2049.53,1396.2 1940.5,1365.5C 1992.04,1306.13 2037.54,1242.46 2077,1174.5C 2114.86,1106.36 2143.19,1034.03 2162,957.5C 2175.67,897.177 2185.33,836.177 2191,774.5C 2191.56,773.978 2192.23,773.645 2193,773.5C 2215.84,781.451 2237.01,792.617 2256.5,807C 2296.79,838.125 2331.29,874.625 2360,916.5C 2414.55,999.275 2456.55,1088.28 2486,1183.5C 2519.74,1292.13 2540.24,1403.13 2547.5,1516.5 Z"/></g>
</svg>
